<svg width="25" height="25" viewBox="0 0 25 25" fill="none" xmlns="http://www.w3.org/2000/svg">
<g clip-path="url(#clip0_1793_28337)">
<path d="M2.93645 16.2617H12.777V18.0698H18.9285V16.2657H21.3724C21.5307 18.416 21.5431 20.3305 19.3376 21.7899C19.3107 21.8076 19.289 21.8319 19.2293 21.8851C19.5005 22.1104 19.7678 22.333 20.0325 22.5531C19.6752 22.8946 19.3882 23.1691 19.0592 23.4844C18.7689 23.1849 18.4549 22.8374 18.1127 22.5209C18.0123 22.4276 17.8343 22.3895 17.6885 22.3803C17.4501 22.3659 17.2084 22.4046 16.968 22.4053C13.7727 22.4072 10.5775 22.4066 7.38156 22.4066C7.22853 22.4066 7.06499 22.4361 6.92378 22.3935C6.49753 22.2654 6.22693 22.4631 5.97341 22.7685C5.75733 23.0286 5.51104 23.263 5.28576 23.5008C4.98167 23.1809 4.70648 22.8919 4.40173 22.5708C4.60599 22.3902 4.86542 22.1603 5.15703 21.9015C4.95606 21.7577 4.80565 21.6579 4.66313 21.5475C3.5952 20.7246 3.01789 19.633 2.94236 18.2925C2.90492 17.6285 2.93579 16.9605 2.93579 16.2617H2.93645Z" fill="#999999"/>
<path d="M2.94253 11.2872C2.93728 11.1683 2.92809 11.0613 2.92809 10.9542C2.92743 9.21375 2.92546 7.47393 2.92809 5.73345C2.93071 3.8209 4.25807 2.48631 6.168 2.50011C6.80902 2.5047 7.46974 2.49157 8.08581 2.63672C9.1787 2.89483 9.867 3.65276 10.1993 4.72069C10.2637 4.92824 10.3471 5.02872 10.575 5.09046C11.861 5.43921 12.7634 6.64113 12.7798 7.98228C12.7825 8.19836 12.7798 8.41444 12.7798 8.64891H6.69277C6.40247 7.11401 7.23659 5.52985 8.98035 5.03529C8.82272 4.35027 8.1482 3.7723 7.44019 3.74734C6.90491 3.72829 6.36766 3.72632 5.83238 3.74734C4.9096 3.78346 4.16744 4.63071 4.1635 5.64676C4.15693 7.39774 4.16153 9.14938 4.16153 10.9004C4.16153 11.0199 4.16153 11.1394 4.16153 11.2866H2.94122L2.94253 11.2872Z" fill="#999999"/>
<path d="M12.7596 15.0328C12.6309 15.0328 12.5343 15.0328 12.4378 15.0328C9.31016 15.0328 6.1819 15.0335 3.0543 15.0321C2.38109 15.0321 1.89705 14.7136 1.72694 14.1698C1.47079 13.3514 2.05073 12.5633 2.93476 12.5515C3.87528 12.539 4.81579 12.5482 5.75631 12.5482C7.96573 12.5482 10.1745 12.5482 12.3839 12.5482C12.5021 12.5482 12.6204 12.5482 12.7596 12.5482V15.0321V15.0328Z" fill="#999999"/>
<path d="M17.6907 16.8712H14.0304C14.0245 16.7556 14.0147 16.6506 14.0147 16.5455C14.0133 15.2772 14.0133 14.0083 14.0147 12.7401C14.0153 11.8225 14.5164 11.3181 15.43 11.3142C15.7689 11.3129 16.1078 11.3057 16.4467 11.3162C17.2079 11.3405 17.7051 11.8521 17.7071 12.6153C17.711 13.9387 17.7084 15.2615 17.7071 16.5849C17.7071 16.6709 17.6979 16.7563 17.6907 16.8712Z" fill="#999999"/>
<path d="M18.9502 15.0208V12.548C19.5452 12.548 20.1317 12.546 20.7176 12.5486C21.023 12.5499 21.335 12.525 21.6338 12.5742C22.286 12.682 22.7103 13.2159 22.6834 13.8392C22.6571 14.4507 22.2059 14.9754 21.5655 15.0089C20.7064 15.0543 19.8434 15.0201 18.9509 15.0201L18.9502 15.0208Z" fill="#999999"/>
</g>
<defs>
<clipPath id="clip0_1793_28337">
<rect width="21.0171" height="21" fill="white" transform="translate(1.66699 2.5)"/>
</clipPath>
</defs>
</svg>
