<svg width="24" height="25" viewBox="0 0 24 25" fill="none" xmlns="http://www.w3.org/2000/svg">
<g clip-path="url(#clip0_1793_28328)">
<path d="M12.0119 19.9599C9.01369 19.9599 6.01627 19.9599 3.01806 19.9599C2.71493 19.9599 2.57479 20.0987 2.57479 20.3979C2.57479 20.4754 2.57872 20.553 2.574 20.6297C2.5677 20.7227 2.55825 20.8157 2.54093 20.9064C2.47637 21.2374 2.15907 21.5026 1.77957 21.4987C1.39849 21.4948 1.08277 21.2119 1.02529 20.8483C1.01191 20.763 1.00482 20.6754 1.00482 20.5894C1.00403 18.8281 0.992223 17.0661 1.00876 15.3049C1.0182 14.2785 1.39771 13.3855 2.12521 12.6421C2.56691 12.1909 3.09207 11.87 3.69282 11.6654C4.16522 11.5049 4.65338 11.4561 5.15098 11.4561C9.76246 11.4576 14.3739 11.4537 18.9854 11.4592C20.3365 11.4607 21.4309 11.9971 22.2419 13.0638C22.6403 13.5886 22.8781 14.1847 22.9592 14.8359C22.9867 15.0553 22.9985 15.2785 22.9993 15.5002C23.0025 17.2103 23.0017 18.9204 23.0009 20.6305C23.0009 20.8979 22.934 21.1413 22.7104 21.3181C22.4741 21.5049 22.2104 21.5537 21.9293 21.4398C21.66 21.3297 21.49 21.1274 21.4514 20.8382C21.4317 20.6925 21.4341 20.5429 21.4301 20.3956C21.4238 20.1576 21.3238 20.0142 21.1239 19.97C21.0798 19.9599 21.0333 19.9607 20.9876 19.9607C17.9965 19.9607 15.0054 19.9607 12.0135 19.9607L12.0119 19.9599Z" fill="#999999"/>
<path d="M11.902 4.5C13.8467 4.5 15.7907 4.5 17.7346 4.5C18.3858 4.5 18.9944 4.64341 19.5195 5.03953C20.1951 5.54884 20.5895 6.21938 20.6226 7.06124C20.651 7.77519 20.6384 8.4907 20.6415 9.20543C20.6439 9.66589 20.6415 10.1264 20.6415 10.5868C20.6415 10.6279 20.6391 10.6713 20.6281 10.7109C20.5943 10.8357 20.5258 10.8853 20.3966 10.8612C20.2557 10.8349 20.1195 10.7783 19.9786 10.7628C19.6471 10.7271 19.3148 10.7023 18.9818 10.6853C18.7597 10.6736 18.6913 10.6341 18.6598 10.4194C18.559 9.73876 17.9189 9.12636 17.1 9.13566C16.1867 9.14574 15.2734 9.13798 14.3609 9.13798C13.6814 9.13798 13.1011 9.53643 12.8704 10.1643C12.8373 10.2543 12.8247 10.3519 12.8074 10.4465C12.7751 10.6163 12.7114 10.6798 12.5397 10.6822C12.1799 10.686 11.8193 10.686 11.4595 10.6822C11.2941 10.6806 11.2288 10.6163 11.1989 10.4279C11.1571 10.1636 11.0532 9.92791 10.8831 9.72093C10.5753 9.34574 10.1769 9.14186 9.6856 9.13953C8.74315 9.13488 7.80069 9.13721 6.85745 9.13876C6.06538 9.13953 5.44574 9.74884 5.34496 10.4178C5.31268 10.6341 5.24733 10.6721 5.0253 10.686C4.65761 10.7101 4.28992 10.7442 3.92302 10.7829C3.81043 10.7946 3.70256 10.8426 3.59076 10.8612C3.4703 10.8806 3.41439 10.8403 3.38054 10.724C3.36715 10.6783 3.36085 10.6295 3.36085 10.5814C3.36007 9.47674 3.34511 8.37209 3.364 7.26744C3.38369 6.11163 3.92617 5.26202 4.98751 4.74806C5.40795 4.54574 5.86382 4.5 6.32521 4.5C8.18413 4.5 10.0431 4.5 11.902 4.5Z" fill="#999999"/>
</g>
<defs>
<clipPath id="clip0_1793_28328">
<rect width="22" height="17" fill="white" transform="translate(1 4.5)"/>
</clipPath>
</defs>
</svg>
