<svg width="32" height="32" viewBox="0 0 32 32" fill="none" xmlns="http://www.w3.org/2000/svg">
<g clip-path="url(#clip0_1179_7113)">
<path d="M25.3335 11.6132L18.2229 6.08252C17.5989 5.59707 16.8308 5.3335 16.0402 5.3335C15.2496 5.3335 14.4816 5.59707 13.8575 6.08252L6.74554 11.6132C6.31813 11.9456 5.97233 12.3712 5.73454 12.8577C5.49676 13.3441 5.37328 13.8784 5.37354 14.4199V24.0199C5.37354 24.7271 5.65449 25.4054 6.15458 25.9055C6.65468 26.4056 7.33296 26.6865 8.0402 26.6865H24.0402C24.7474 26.6865 25.4257 26.4056 25.9258 25.9055C26.4259 25.4054 26.7069 24.7271 26.7069 24.0199V14.4199C26.7069 13.3225 26.2002 12.2865 25.3335 11.6132Z" fill="#7065F0" stroke="#7065F0" stroke-width="3" stroke-linecap="round" stroke-linejoin="round"/>
<path d="M21.3332 20C18.3865 21.7773 13.6105 21.7773 10.6665 20" stroke="#F9FAFB" stroke-width="3" stroke-linecap="round" stroke-linejoin="round"/>
</g>
<defs>
<clipPath id="clip0_1179_7113">
<rect width="32" height="32" fill="white"/>
</clipPath>
</defs>
</svg>
