<svg width="64" height="64" viewBox="0 0 64 64" fill="none" xmlns="http://www.w3.org/2000/svg">
<circle cx="32" cy="32" r="31.5" fill="white" stroke="#E0DEF7"/>
<circle cx="32" cy="32" r="28" fill="#E0DEF7"/>
<path d="M39.3734 26.3598C39.2801 26.3465 39.1867 26.3465 39.0934 26.3598C37.0267 26.2932 35.3867 24.5998 35.3867 22.5198C35.3867 20.3998 37.1067 18.6665 39.2401 18.6665C41.3601 18.6665 43.0934 20.3865 43.0934 22.5198C43.0801 24.5998 41.4401 26.2932 39.3734 26.3598Z" fill="white"/>
<path d="M43.72 35.6C42.2266 36.6 40.1333 36.9734 38.2 36.72C38.7066 35.6267 38.9733 34.4134 38.9866 33.1334C38.9866 31.8001 38.6933 30.5334 38.1333 29.4267C40.1066 29.16 42.2 29.5334 43.7066 30.5334C45.8133 31.92 45.8133 34.2 43.72 35.6Z" fill="white"/>
<path d="M24.5865 26.3598C24.6799 26.3465 24.7732 26.3465 24.8665 26.3598C26.9332 26.2932 28.5732 24.5998 28.5732 22.5198C28.5732 20.3865 26.8532 18.6665 24.7199 18.6665C22.5999 18.6665 20.8799 20.3865 20.8799 22.5198C20.8799 24.5998 22.5199 26.2932 24.5865 26.3598Z" fill="white"/>
<path d="M24.7335 33.1331C24.7335 34.4265 25.0135 35.6531 25.5202 36.7598C23.6402 36.9598 21.6802 36.5598 20.2402 35.6131C18.1335 34.2131 18.1335 31.9331 20.2402 30.5331C21.6668 29.5731 23.6802 29.1865 25.5735 29.3998C25.0268 30.5198 24.7335 31.7865 24.7335 33.1331Z" fill="white"/>
<path d="M32.1599 37.16C32.0532 37.1467 31.9332 37.1467 31.8132 37.16C29.3599 37.08 27.3999 35.0667 27.3999 32.5867C27.4132 30.0533 29.4532 28 31.9999 28C34.5332 28 36.5866 30.0533 36.5866 32.5867C36.5732 35.0667 34.6266 37.08 32.1599 37.16Z" fill="white"/>
<path d="M27.8269 39.92C25.8136 41.2667 25.8136 43.48 27.8269 44.8134C30.1202 46.3467 33.8802 46.3467 36.1736 44.8134C38.1869 43.4667 38.1869 41.2534 36.1736 39.92C33.8936 38.3867 30.1336 38.3867 27.8269 39.92Z" fill="white"/>
<path d="M40 48C40 43.5817 43.5817 40 48 40H56C60.4183 40 64 43.5817 64 48V56C64 60.4183 60.4183 64 56 64H48C43.5817 64 40 60.4183 40 56V48Z" fill="#7065F0"/>
<path d="M57.1933 53.9534C55.8199 55.32 53.8533 55.74 52.1266 55.2L48.9866 58.3334C48.7599 58.5667 48.3133 58.7067 47.9933 58.66L46.5399 58.46C46.0599 58.3934 45.6133 57.94 45.5399 57.46L45.3399 56.0067C45.2933 55.6867 45.4466 55.24 45.6666 55.0134L48.7999 51.88C48.2666 50.1467 48.6799 48.18 50.0533 46.8134C52.0199 44.8467 55.2133 44.8467 57.1866 46.8134C59.1599 48.78 59.1599 51.9867 57.1933 53.9534Z" fill="white"/>
<path d="M48.5933 55.6602L50.1266 57.1935" stroke="#7065F0" stroke-width="2" stroke-miterlimit="10" stroke-linecap="round" stroke-linejoin="round"/>
<path d="M53.6665 51.3335C54.2188 51.3335 54.6665 50.8858 54.6665 50.3335C54.6665 49.7812 54.2188 49.3335 53.6665 49.3335C53.1142 49.3335 52.6665 49.7812 52.6665 50.3335C52.6665 50.8858 53.1142 51.3335 53.6665 51.3335Z" fill="#7065F0" stroke="#7065F0" stroke-width="2" stroke-linecap="round" stroke-linejoin="round"/>
</svg>
