<svg width="64" height="64" viewBox="0 0 64 64" fill="none" xmlns="http://www.w3.org/2000/svg">
<circle cx="32" cy="32" r="31.5" fill="white" stroke="#E0DEF7"/>
<circle cx="32" cy="32" r="28" fill="#E0DEF7"/>
<rect x="40" y="40" width="24" height="24" rx="12" fill="#7065F0"/>
<path d="M51.4998 49.3867V51.2934L50.8265 51.0601C50.4865 50.9401 50.2798 50.8267 50.2798 50.2467C50.2798 49.7734 50.6331 49.3867 51.0665 49.3867H51.4998Z" fill="white"/>
<path d="M53.72 53.7532C53.72 54.2265 53.3667 54.6132 52.9333 54.6132H52.5V52.7065L53.1733 52.9399C53.5133 53.0599 53.72 53.1732 53.72 53.7532Z" fill="white"/>
<path d="M54.7935 45.3335H49.2068C46.7802 45.3335 45.3335 46.7802 45.3335 49.2068V54.7935C45.3335 57.2202 46.7802 58.6668 49.2068 58.6668H54.7935C57.2202 58.6668 58.6668 57.2202 58.6668 54.7935V49.2068C58.6668 46.7802 57.2202 45.3335 54.7935 45.3335ZM53.5068 52.0002C54.0268 52.1802 54.7202 52.5602 54.7202 53.7535C54.7202 54.7802 53.9202 55.6135 52.9335 55.6135H52.5002V56.0002C52.5002 56.2735 52.2735 56.5002 52.0002 56.5002C51.7268 56.5002 51.5002 56.2735 51.5002 56.0002V55.6135H51.2602C50.1668 55.6135 49.2802 54.6868 49.2802 53.5535C49.2802 53.2802 49.5002 53.0535 49.7802 53.0535C50.0535 53.0535 50.2802 53.2802 50.2802 53.5535C50.2802 54.1402 50.7202 54.6135 51.2602 54.6135H51.5002V52.3535L50.4935 52.0002C49.9735 51.8202 49.2802 51.4402 49.2802 50.2468C49.2802 49.2202 50.0802 48.3868 51.0668 48.3868H51.5002V48.0002C51.5002 47.7268 51.7268 47.5002 52.0002 47.5002C52.2735 47.5002 52.5002 47.7268 52.5002 48.0002V48.3868H52.7402C53.8335 48.3868 54.7202 49.3135 54.7202 50.4468C54.7202 50.7202 54.5002 50.9468 54.2202 50.9468C53.9468 50.9468 53.7202 50.7202 53.7202 50.4468C53.7202 49.8602 53.2802 49.3868 52.7402 49.3868H52.5002V51.6468L53.5068 52.0002Z" fill="white"/>
<path d="M31.9998 44L45.3332 34.6667H40.0132L39.9998 20H23.9998V34.6667H18.6665L31.9998 44Z" fill="white" stroke="white" stroke-width="2" stroke-linecap="round" stroke-linejoin="round"/>
<g filter="url(#filter0_d_58_1293)">
<path d="M28 34.6665L36 26.6665" stroke="#7065F0" stroke-width="2" stroke-linecap="round" stroke-linejoin="round"/>
</g>
<g filter="url(#filter1_d_58_1293)">
<path d="M28.6667 27.9998C29.0349 27.9998 29.3333 27.7014 29.3333 27.3332C29.3333 26.965 29.0349 26.6665 28.6667 26.6665C28.2985 26.6665 28 26.965 28 27.3332C28 27.7014 28.2985 27.9998 28.6667 27.9998Z" fill="#7065F0"/>
<path d="M28.6667 27.9998C29.0349 27.9998 29.3333 27.7014 29.3333 27.3332C29.3333 26.965 29.0349 26.6665 28.6667 26.6665C28.2985 26.6665 28 26.965 28 27.3332C28 27.7014 28.2985 27.9998 28.6667 27.9998Z" stroke="#7065F0" stroke-width="2" stroke-linecap="round" stroke-linejoin="round"/>
</g>
<path d="M35.3332 34.6668C35.7014 34.6668 35.9998 34.3684 35.9998 34.0002C35.9998 33.632 35.7014 33.3335 35.3332 33.3335C34.965 33.3335 34.6665 33.632 34.6665 34.0002C34.6665 34.3684 34.965 34.6668 35.3332 34.6668Z" fill="#7065F0" stroke="#7065F0" stroke-width="2" stroke-linecap="round" stroke-linejoin="round"/>
<defs>
<filter id="filter0_d_58_1293" x="25" y="23.6665" width="18" height="18" filterUnits="userSpaceOnUse" color-interpolation-filters="sRGB">
<feFlood flood-opacity="0" result="BackgroundImageFix"/>
<feColorMatrix in="SourceAlpha" type="matrix" values="0 0 0 0 0 0 0 0 0 0 0 0 0 0 0 0 0 0 127 0" result="hardAlpha"/>
<feOffset dx="2" dy="2"/>
<feGaussianBlur stdDeviation="2"/>
<feComposite in2="hardAlpha" operator="out"/>
<feColorMatrix type="matrix" values="0 0 0 0 0.439216 0 0 0 0 0.396078 0 0 0 0 0.941176 0 0 0 0.1 0"/>
<feBlend mode="normal" in2="BackgroundImageFix" result="effect1_dropShadow_58_1293"/>
<feBlend mode="normal" in="SourceGraphic" in2="effect1_dropShadow_58_1293" result="shape"/>
</filter>
<filter id="filter1_d_58_1293" x="25" y="23.6665" width="11.3335" height="11.3335" filterUnits="userSpaceOnUse" color-interpolation-filters="sRGB">
<feFlood flood-opacity="0" result="BackgroundImageFix"/>
<feColorMatrix in="SourceAlpha" type="matrix" values="0 0 0 0 0 0 0 0 0 0 0 0 0 0 0 0 0 0 127 0" result="hardAlpha"/>
<feOffset dx="2" dy="2"/>
<feGaussianBlur stdDeviation="2"/>
<feComposite in2="hardAlpha" operator="out"/>
<feColorMatrix type="matrix" values="0 0 0 0 0.439216 0 0 0 0 0.396078 0 0 0 0 0.941176 0 0 0 0.1 0"/>
<feBlend mode="normal" in2="BackgroundImageFix" result="effect1_dropShadow_58_1293"/>
<feBlend mode="normal" in="SourceGraphic" in2="effect1_dropShadow_58_1293" result="shape"/>
</filter>
</defs>
</svg>
