<svg width="100" height="101" viewBox="0 0 100 101" fill="none" xmlns="http://www.w3.org/2000/svg">
<path d="M43 59.5L32.125 48.625C31.2083 47.7083 30.0833 47.25 28.75 47.25C27.4167 47.25 26.25 47.75 25.25 48.75C24.3333 49.6667 23.875 50.8333 23.875 52.25C23.875 53.6667 24.3333 54.8333 25.25 55.75L39.5 70C40.4167 70.9167 41.5833 71.375 43 71.375C44.4167 71.375 45.5833 70.9167 46.5 70L74.875 41.625C75.7917 40.7083 76.25 39.5833 76.25 38.25C76.25 36.9167 75.75 35.75 74.75 34.75C73.8333 33.8333 72.6667 33.375 71.25 33.375C69.8333 33.375 68.6667 33.8333 67.75 34.75L43 59.5ZM50 100.5C43.0833 100.5 36.5833 99.1867 30.5 96.56C24.4167 93.9367 19.125 90.375 14.625 85.875C10.125 81.375 6.56333 76.0833 3.94 70C1.31333 63.9167 0 57.4167 0 50.5C0 43.5833 1.31333 37.0833 3.94 31C6.56333 24.9167 10.125 19.625 14.625 15.125C19.125 10.625 24.4167 7.06167 30.5 4.435C36.5833 1.81167 43.0833 0.5 50 0.5C56.9167 0.5 63.4167 1.81167 69.5 4.435C75.5833 7.06167 80.875 10.625 85.375 15.125C89.875 19.625 93.4367 24.9167 96.06 31C98.6867 37.0833 100 43.5833 100 50.5C100 57.4167 98.6867 63.9167 96.06 70C93.4367 76.0833 89.875 81.375 85.375 85.875C80.875 90.375 75.5833 93.9367 69.5 96.56C63.4167 99.1867 56.9167 100.5 50 100.5Z" fill="#31A91D"/>
</svg>
