<svg width="25" height="25" viewBox="0 0 25 25" fill="none" xmlns="http://www.w3.org/2000/svg">
<g clip-path="url(#clip0_1793_28349)">
<path d="M3.17029 5.7663C2.94566 6.03046 2.72036 6.29397 2.50099 6.55155C2.07016 6.11676 1.69467 5.73863 1.33301 5.37434C2.25 4.45602 3.18545 3.51992 4.10903 2.59568C5.03327 3.5219 5.96805 4.458 6.88373 5.37566C6.52602 5.73336 6.1479 6.11083 5.73683 6.5219C5.49902 6.25642 5.24342 5.97118 4.92326 5.61479V9.40464C6.64855 7.67671 8.41535 5.90859 10.1716 4.1497C9.7085 4.1497 9.18413 4.11742 8.66634 4.15958C8.21772 4.19581 7.90415 4.04825 7.61166 3.71755C7.25659 3.31637 6.85277 2.958 6.41535 2.52783C6.5807 2.51531 6.67095 2.5028 6.76186 2.5028C11.1545 2.50214 15.5471 2.50016 19.9397 2.5028C21.3416 2.50346 22.3409 3.4804 22.3429 4.87368C22.3501 9.28936 22.3455 13.7044 22.3455 18.1201C22.3455 18.1813 22.3389 18.2432 22.254 18.3631C21.8561 17.9468 21.476 17.5114 21.053 17.122C20.7783 16.8691 20.6677 16.6056 20.6901 16.234C20.7217 15.7143 20.698 15.1912 20.698 14.6747C18.9338 16.4409 17.1874 18.1886 15.445 19.933H19.2421C18.887 19.6431 18.5945 19.4046 18.3073 19.1701C18.7783 18.7169 19.1617 18.348 19.5346 17.9883C20.4167 18.8803 21.3482 19.8216 22.2731 20.7564C21.3771 21.6458 20.4377 22.5786 19.5082 23.5008C19.1591 23.1451 18.7876 22.767 18.3916 22.3638C18.6143 22.1675 18.8679 21.9435 19.1215 21.7195C19.1057 21.6807 19.0899 21.6418 19.0735 21.6036H18.7105C14.3837 21.6036 10.057 21.6049 5.73024 21.6029C4.54579 21.6029 3.69203 21.0285 3.36595 19.9837C3.27635 19.6965 3.25066 19.3803 3.25 19.0766C3.24276 14.7709 3.24539 10.4652 3.24539 6.15958C3.24539 6.04364 3.24539 5.92704 3.24539 5.8111C3.2197 5.79595 3.19401 5.78145 3.16832 5.7663H3.17029ZM4.89559 18.6833C9.74276 13.8355 14.582 8.99489 19.4266 4.1497C18.7362 4.1497 18.0267 4.14377 17.3172 4.15695C17.2263 4.15892 17.1209 4.24193 17.0484 4.31439C13.0497 8.30912 9.05303 12.3065 5.05896 16.3065C4.98716 16.379 4.90415 16.4844 4.90218 16.5753C4.889 17.2841 4.89493 17.9929 4.89493 18.6826L4.89559 18.6833ZM20.698 5.458C15.8627 10.292 11.028 15.126 6.19994 19.9527C6.8587 19.9527 7.55764 19.9587 8.25659 19.9455C8.3475 19.9435 8.45158 19.8572 8.52405 19.7841C12.5293 15.7828 16.5326 11.7788 20.5326 7.77289C20.6051 7.70043 20.6887 7.59502 20.6901 7.50411C20.7032 6.80583 20.6973 6.10688 20.6973 5.458H20.698ZM20.698 10.0878C17.4088 13.3743 14.1163 16.6642 10.8244 19.9527C11.4918 19.9527 12.1901 19.9587 12.889 19.9455C12.9793 19.9435 13.082 19.8533 13.1551 19.7801C15.6176 17.3223 18.0774 14.8618 20.5346 12.3987C20.6064 12.3262 20.6887 12.2202 20.6907 12.1286C20.7039 11.4297 20.698 10.7307 20.698 10.0871V10.0878ZM4.89559 14.0232C8.19401 10.7261 11.4793 7.44153 14.7717 4.1497C14.1123 4.1497 13.4358 4.14377 12.7592 4.15629C12.667 4.15826 12.5596 4.23534 12.4878 4.30649C10.0089 6.78014 7.53327 9.25642 5.06028 11.7353C4.98848 11.8078 4.90481 11.9125 4.90284 12.0041C4.88966 12.682 4.89559 13.3598 4.89559 14.0232Z" fill="#999999"/>
</g>
<defs>
<clipPath id="clip0_1793_28349">
<rect width="21.0145" height="21" fill="white" transform="translate(1.33301 2.5)"/>
</clipPath>
</defs>
</svg>
